<?xml version="1.0" encoding="utf-8"?>
<!-- Generator: Adobe Illustrator 22.0.1, SVG Export Plug-In . SVG Version: 6.00 Build 0)  -->
<svg version="1.1" id="Layer_1" xmlns="http://www.w3.org/2000/svg" xmlns:xlink="http://www.w3.org/1999/xlink" x="0px" y="0px"
	 viewBox="0 0 160 160" style="enable-background:new 0 0 140 140;" xml:space="preserve">
<style type="text/css">
	.st0{fill:#F7F9F8;}
	.st1{fill:#1ED760;}
</style>
<path class="st0" d="M29.3,0.9C14.2,0.9,1.9,13.2,1.9,28.3c0,15.1,12.3,27.4,27.4,27.4c15.1,0,27.4-12.2,27.4-27.4
	C56.6,13.2,44.4,0.9,29.3,0.9C29.3,0.9,29.3,0.9,29.3,0.9z"/>
<path class="st1" d="M29.3,0.9C14.2,0.9,1.9,13.2,1.9,28.3c0,15.1,12.3,27.4,27.4,27.4c15.1,0,27.4-12.2,27.4-27.4
	C56.6,13.2,44.4,0.9,29.3,0.9C29.3,0.9,29.3,0.9,29.3,0.9z M13.1,21.2c0.6-1,2-1.4,3-0.7c8.3,5,18.7,6.2,30.9,3.4
	c1.2-0.3,2.4,0.5,2.6,1.7c0.3,1.2-0.5,2.4-1.7,2.6c-13.4,3.1-24.9,1.7-34.2-3.9C12.8,23.6,12.4,22.2,13.1,21.2z M8.8,30.8
	c0.8-1.3,2.5-1.7,3.8-0.9c9.5,5.8,23.9,7.5,35.1,4.1c1.5-0.4,3,0.4,3.4,1.8c0.4,1.5-0.4,3-1.8,3.4c-12.8,3.9-28.7,2-39.5-4.7
	C8.4,33.8,8,32.1,8.8,30.8L8.8,30.8z"/>
</svg>
